<svg width="718" height="722" xmlns="http://www.w3.org/2000/svg" xmlns:xlink="http://www.w3.org/1999/xlink" overflow="hidden"><defs><clipPath id="clip0"><path d="M281-1 999-1 999 721 281 721Z" fill-rule="evenodd" clip-rule="evenodd"/></clipPath></defs><g clip-path="url(#clip0)" transform="translate(-281 1)"><path d="M281 51.5756C281 23.1075 304.767 0 334.065 0L945.935 0C975.244 0 999 23.1075 999 51.5756L999 668.433C999 696.909 975.244 720 945.935 720L334.065 720C304.77 720 281 696.912 281 668.441L281 51.5671Z" fill="#FFFFFF" fill-rule="evenodd"/><path d="M499.502 602.989 499.502 278.447 392.318 278.447 392.318 602.989 499.513 602.989ZM445.932 234.144C483.302 234.144 506.567 209.223 506.567 178.079 505.867 146.225 483.302 122 446.643 122 409.959 122 386 146.225 386 178.076 386 209.221 409.257 234.142 445.23 234.142L445.924 234.142ZM558.83 602.989 666.005 602.989 666.005 421.77C666.005 412.083 666.705 402.371 669.536 395.452 677.281 376.064 694.917 355.995 724.533 355.995 763.307 355.995 778.827 385.754 778.827 429.387L778.827 602.989 886 602.989 886 416.907C886 317.226 833.13 270.839 762.613 270.839 704.799 270.839 679.407 303.36 665.3 325.51L666.014 325.51 666.014 278.459 558.835 278.459C560.234 308.904 558.827 603 558.827 603Z" fill="#17A2B8" fill-rule="evenodd"/></g></svg>